<svg id="Layer_35" enable-background="new 0 0 64 64" height="512" viewBox="0 0 64 64" width="512" xmlns="http://www.w3.org/2000/svg"><g fill="#f0bc5e"><path d="m16 18h1c.895 1.074 1.921 2.003 3.03 2.808h-.03v1.192c-2.209 0-4 1.791-4 4h-1v-8.277c.295.171.634.277 1 .277z"/><path d="m48 18h-1c-.895 1.074-1.921 2.003-3.03 2.808h.03v1.192c2.209 0 4 1.791 4 4h1v-8.277c-.295.171-.634.277-1 .277z"/><path d="m39.969 49-1.969 5v5h10v-5l1.852-5z"/><path d="m14.148 49 1.852 5v5h10v-5l-1.969-5z"/></g><circle cx="38" cy="26" r="1"/><circle cx="26" cy="26" r="1"/><path d="m36 32h-2c0 1.103-.897 2-2 2s-2-.897-2-2h-2c0 2.206 1.794 4 4 4s4-1.794 4-4z"/><path d="m49.123 47.289-10.259-4.198c-1.133-.463-1.864-1.553-1.864-2.777v-.718c3.077-2.126 5.427-5.126 6.759-8.596h.241c2.757 0 5-2.243 5-5 0-2.349-1.634-4.311-3.821-4.845.809-.644 1.56-1.367 2.255-2.155h.566c1.654 0 3-1.346 3-3 0-1.57-1.217-2.848-2.755-2.975-2.173-7.114-8.738-12.025-16.245-12.025-7.509 0-14.072 4.91-16.244 12.025-1.539.126-2.756 1.404-2.756 2.975 0 1.654 1.346 3 3 3h.566c.695.789 1.446 1.512 2.255 2.155-2.187.534-3.821 2.496-3.821 4.845 0 2.757 2.243 5 5 5h.241c1.332 3.471 3.682 6.47 6.759 8.596v.718c0 1.224-.731 2.313-1.864 2.777l-10.259 4.197c-6 2.455-9.877 8.229-9.877 14.712v1h54v-1c0-6.483-3.877-12.257-9.877-14.711zm-.442 1.993-1.377 3.718h-7.835l2.544-6.46 6.353 2.599c.107.045.209.097.315.143zm-31.681 5.718h8v6h-8zm6.839-9.217 1.384-.566c1.448 2.321 4.009 3.783 6.777 3.783 2.769 0 5.329-1.462 6.777-3.784l1.384.566-3.161 8.028v7.19h-10v-7.19zm15.161 9.217h8v6h-8zm8-29c0 1.512-1.129 2.754-2.586 2.958.379-1.482.586-3.025.586-4.607v-1.167c1.161.414 2 1.514 2 2.816zm-24.017-19.985 1.037 5.181 1.961-.393-1.192-5.959c1.057-.579 2.188-1.031 3.372-1.344l.846 7.609 1.988-.221-.863-7.761c.614-.075 1.236-.127 1.868-.127s1.253.052 1.868.129l-.862 7.761 1.988.221.845-7.609c1.184.313 2.315.765 3.372 1.345l-1.192 5.958 1.961.393 1.036-5.18c2.316 1.741 4.128 4.143 5.129 6.984h-28.291c1.001-2.843 2.813-5.246 5.129-6.987zm-7.983 9.985c0-.551.448-1 1-1h32c.552 0 1 .449 1 1s-.448 1-1 1h-32c-.552 0-1-.449-1-1zm29.62 3c-2.853 2.554-6.54 4-10.431 4h-4.379c-3.891 0-7.578-1.446-10.431-4zm-27.62 7c0-1.302.839-2.402 2-2.816v1.167c0 1.582.207 3.125.586 4.607-1.457-.204-2.586-1.446-2.586-2.958zm4-1.649v-1.719c2.648 1.526 5.67 2.368 8.811 2.368h4.379c3.141 0 6.162-.842 8.811-2.368v1.719c0 7.023-4.406 13.247-11 15.591-6.595-2.344-11.001-8.568-11.001-15.591zm10.684 17.598.316.105.316-.105c.947-.316 1.855-.702 2.719-1.153.135 1.411.851 2.672 1.964 3.506-1.101 1.662-2.978 2.698-4.999 2.698s-3.898-1.036-4.999-2.698c1.112-.834 1.828-2.096 1.963-3.506.864.45 1.773.837 2.72 1.153zm-9.696 4.591 2.543 6.46h-7.835l-1.377-3.718c.106-.046.208-.098.316-.142zm-8.454 3.681 1.466 3.958v6.821h-7.965c.317-4.467 2.748-8.444 6.499-10.779zm35.466 10.779v-6.821l1.466-3.958c3.751 2.334 6.182 6.312 6.499 10.779z"/><path d="m30.143 59.485 1.714 1.03 3.91-6.515h-3l2.09-3.485-1.714-1.03-3.91 6.515h3z"/></svg>