<?xml version="1.0"?>
<svg xmlns="http://www.w3.org/2000/svg" viewBox="0 0 512 512" width="512" height="512"><g id="Outline"><path d="M407.913,298.158l-38.687-5.5L344,275.733V250.428q1.143-.828,2.256-1.7A72.094,72.094,0,0,0,371.83,209.5a134.155,134.155,0,0,0,3.932-25.5H376a32,32,0,0,0,8.712-62.785A31.856,31.856,0,0,0,384,102.606V72a56,56,0,0,0-56-56H264a56,56,0,0,0-56,56v30.606a31.856,31.856,0,0,0-.712,18.609A32,32,0,0,0,216,184h.238a133.977,133.977,0,0,0,3.921,25.46A71.877,71.877,0,0,0,248,250.509v25.475l-25.542,19.038s-53,11.357-54.458,11.766V168a8,8,0,0,0-8-8H112V128h48a8,8,0,0,0,8-8,48.055,48.055,0,0,0-48-48H104a48.055,48.055,0,0,0-48,48V232a33.47,33.47,0,0,0,18.735,30.272l9.556,4.789A24.015,24.015,0,0,0,72,288V456a39.995,39.995,0,0,0,75.124,19.123L192,409.78V496h16V440h64V424H208V384a8,8,0,0,0-14.595-4.529L152,439.76V421.07a32.026,32.026,0,0,0,16-27.71V323.624c2.51-.937,50.655-11.429,50.655-11.429l5.372,64.47a8,8,0,0,0,11.942,6.281l35.385-20.221L288,409.385V496h16V409.385l16.646-46.66,35.385,20.221a8,8,0,0,0,11.942-6.281l5.6-67.224L405.646,314A40.292,40.292,0,0,1,440,353.6V496h16V353.6A56.39,56.39,0,0,0,407.913,298.158ZM72,120a32.036,32.036,0,0,1,32-32h16a32.054,32.054,0,0,1,30.987,24H104a8,8,0,0,0-8,8v40H72Zm0,88h32v16H72Zm1.856,32H112a8,8,0,0,0,8-8V200a8,8,0,0,0-8-8H72V176h80v89.376A23.889,23.889,0,0,0,144,264H113.893L81.846,247.939A17.487,17.487,0,0,1,73.856,240ZM88,288a8.009,8.009,0,0,1,8-8h48a8.009,8.009,0,0,1,8,8v48a8.009,8.009,0,0,1-8,8H96a8.009,8.009,0,0,1-8-8V288Zm24,192a24.028,24.028,0,0,1-24-24V358.624c2.5.888,16,1.376,16,1.376v32c0,17.461,13.582,32.42,30.33,33.351q.819.039,1.632.039H136V456A24.028,24.028,0,0,1,112,480Zm29.282-71.524a15.662,15.662,0,0,1-6.119.9C126.8,408.908,120,401.115,120,392V360h24a23.889,23.889,0,0,0,8-1.376V393.36A16.005,16.005,0,0,1,141.282,408.476ZM328.88,125.37a199.584,199.584,0,0,0-65.76,0l-21.94,3.656A16.277,16.277,0,0,1,222.275,112h147.45a16.277,16.277,0,0,1-18.905,17.026ZM392,152a16.035,16.035,0,0,1-16,16V136.1c.032-.032.066-.061.1-.092A16.015,16.015,0,0,1,392,152ZM224,72a40,40,0,0,1,40-40h64a40,40,0,0,1,40,40V96H224Zm-19.3,91.3A15.983,15.983,0,0,1,215.92,136l.08.082V168A16.108,16.108,0,0,1,204.7,163.3Zm30.974,42.235A119.3,119.3,0,0,1,232,176V144.616a32.535,32.535,0,0,0,11.811.193l4.891-.816a12,12,0,1,0,20.713-3.413,183.523,183.523,0,0,1,53.17,0,12,12,0,1,0,20.715,3.414c5.2.866,11.541,1.72,16.752.625C359.409,154.963,360,165.6,360,176a119.329,119.329,0,0,1-3.676,29.56A56.173,56.173,0,0,1,302,248H290A55.928,55.928,0,0,1,235.67,205.538ZM290,264h12a72.048,72.048,0,0,0,26-4.882v19.8L312.2,336H279.8L264,278.914V259.155A71.974,71.974,0,0,0,290,264Zm17.484,88L296,384.191,284.516,352ZM238.93,362.826l-4.718-56.609,17.2-12.817,14.885,53.79Zm114.14,0L325.708,347.19l15.045-54.369,17.189,11.532Z"/><polygon points="384 424 320 424 320 440 384 440 384 496 400 496 400 384 384 384 384 424"/><path d="M330.713,199.526l-5.426-15.052A119.979,119.979,0,0,1,285.121,191H272v16h13.121C301.382,207,317.146,204.416,330.713,199.526Z"/><rect x="272" y="64" width="48" height="16"/></g></svg>
