<?xml version="1.0"?>
<svg xmlns="http://www.w3.org/2000/svg" id="outline" viewBox="0 0 64 64" width="512" height="512"><path d="M4,57.35352A3.00139,3.00139,0,0,1,5.54346,54.731l6.34283-3.52387L13,52.13513V57H12a3.00328,3.00328,0,0,0-3,3v2h2V60a1.0013,1.0013,0,0,1,1-1H30a1.0013,1.0013,0,0,1,1,1v2h2V60a3.00328,3.00328,0,0,0-3-3H29V52.13507l1.11371-.928,2.40045,1.33344.97168-1.748-2.87805-1.59875-1.74158-1.74158A2.99114,2.99114,0,0,0,27,46.5899V44.37628A11.99743,11.99743,0,0,0,33,34V31.08069l.875-.69983A2.98759,2.98759,0,0,0,35,28.03857V23.96143a2.98721,2.98721,0,0,0-1.126-2.34278L31.85071,20H35a2.002,2.002,0,0,0,2-2V16a2.002,2.002,0,0,0-2-2H34V11a9.01047,9.01047,0,0,0-9-9H17a9.01047,9.01047,0,0,0-9,9v3H7a2.002,2.002,0,0,0-2,2v2a2.002,2.002,0,0,0,2,2h3.14941L8.125,21.61914A2.98759,2.98759,0,0,0,7,23.96143v4.07714a2.98721,2.98721,0,0,0,1.126,2.34278L9,31.08057V34a11.99743,11.99743,0,0,0,6,10.37628V46.5899a2.99065,2.99065,0,0,0-1.86621.86225l-1.74158,1.74158L4.57178,52.98291A5.00257,5.00257,0,0,0,2,57.35352V62H4ZM27,57H15V53.8017l1.55176,1.293a2.00976,2.00976,0,0,0,1.28222.46289,1.92179,1.92179,0,0,0,.23047-.01367,2.00736,2.00736,0,0,0,1.3667-.78614L21,52.66663l1.56836,2.09069a2.00822,2.00822,0,0,0,1.36719.78663,1.92179,1.92179,0,0,0,.23047.01367,2.0098,2.0098,0,0,0,1.28271-.46338L27,53.80164ZM17,47.13165V45.29987a11.77651,11.77651,0,0,0,8,0v1.83178L21,49.7981Zm10.45215,1.73456,1.0664,1.06641-4.35009,3.625-1.73389-2.312,3.75586-2.50391A1.00408,1.00408,0,0,1,27.45215,48.86621ZM29,5.26361A6.99317,6.99317,0,0,1,32,11v3H29ZM15,4.2948A6.97125,6.97125,0,0,1,17,4h3v8h2V4h3a6.97125,6.97125,0,0,1,2,.2948V14H15ZM10,11a6.99317,6.99317,0,0,1,3-5.73639V14H10ZM7,18V16H35l.00146,2ZM9,28.03857V23.96143a.99681.99681,0,0,1,.375-.78125l3.70215-2.96094A1.001,1.001,0,0,1,13.70166,20H28.29834a1.001,1.001,0,0,1,.62451.21924L32.624,23.17969a.99642.99642,0,0,1,.376.78174v4.07714a.99681.99681,0,0,1-.375.78125l-3.70215,2.96094A1.001,1.001,0,0,1,28.29834,32H13.70166a1.00337,1.00337,0,0,1-.625-.21924L9.376,28.82031A.99642.99642,0,0,1,9,28.03857ZM11,34V32.68054l.82715.66175A3.01061,3.01061,0,0,0,13.70166,34H20v2h2V34h6.29834a3.00822,3.00822,0,0,0,1.874-.65771L31,32.68036V34a10,10,0,0,1-20,0Zm3.54785,14.86621a1.0029,1.0029,0,0,1,1.26172-.12451l3.75635,2.50391-1.73438,2.3125-4.35009-3.62549Z"/><rect x="18" y="39" width="6" height="2"/><path d="M51,51H49a2.002,2.002,0,0,0-2,2v2a2.002,2.002,0,0,0,2,2h2a2.002,2.002,0,0,0,2-2V53A2.002,2.002,0,0,0,51,51Zm0,4-2,.00146V53h2Z"/><path d="M17,30h8a4,4,0,0,0,0-8H17a4,4,0,0,0,0,8Zm5-6h3a2,2,0,0,1,0,4H22Zm-5,0h3v4H17a2,2,0,0,1,0-4Z"/><path d="M59,37H58V33a3.00328,3.00328,0,0,0-3-3H53V27h2V25H53V23h2V21H53V19h2V17H53V15h2V13H53V11h2V9H53V8A6,6,0,0,0,41,8V9H39v2h2v2H39v2h2v2H39v2h2v2H39v2h2v2H39v2h2v3H39a3.00328,3.00328,0,0,0-3,3V59a3.00328,3.00328,0,0,0,3,3H55a3.00328,3.00328,0,0,0,3-3V47h1a3.00328,3.00328,0,0,0,3-3V40A3.00328,3.00328,0,0,0,59,37ZM43,8a4,4,0,0,1,8,0V30H43ZM56,37H52.81573a3,3,0,1,0,0,2H56V59a1.0013,1.0013,0,0,1-1,1H39a1.0013,1.0013,0,0,1-1-1V47H53V45H38V33a1.0013,1.0013,0,0,1,1-1H55a1.0013,1.0013,0,0,1,1,1Zm-5,1a1,1,0,1,1-1-1A1.0013,1.0013,0,0,1,51,38Zm9,6a1.0013,1.0013,0,0,1-1,1H58V39h1a1.0013,1.0013,0,0,1,1,1Z"/></svg>
